<svg xmlns="http://www.w3.org/2000/svg" version="1.1" xmlns:xlink="http://www.w3.org/1999/xlink" xmlns:svgjs="http://svgjs.dev/svgjs" width="2000" height="1247" viewBox="0 0 2000 1247"><g transform="matrix(1,0,0,1,-1.2121212121212466,0.504858299595071)"><svg viewBox="0 0 396 247" data-background-color="#111111" preserveAspectRatio="xMidYMid meet" height="1247" width="2000" xmlns="http://www.w3.org/2000/svg" xmlns:xlink="http://www.w3.org/1999/xlink"><g id="tight-bounds" transform="matrix(1,0,0,1,0.2400000000000091,-0.09999999999999432)"><svg viewBox="0 0 395.52 247.2" height="247.2" width="395.52"><g><svg viewBox="0 0 395.52 247.2" height="247.2" width="395.52"><g transform="matrix(1,0,0,1,0,86.47121969554595)"><svg viewBox="0 0 395.52 74.2575606089081" height="74.2575606089081" width="395.52"><g><svg viewBox="0 0 395.52 74.2575606089081" height="74.2575606089081" width="395.52"><g><svg viewBox="0 0 395.52 74.2575606089081" height="74.2575606089081" width="395.52"><g><svg viewBox="0 0 395.52 74.2575606089081" height="74.2575606089081" width="395.52"><g id="textblocktransform"><svg viewBox="0 0 395.52 74.2575606089081" height="74.2575606089081" width="395.52" id="textblock"><g><svg viewBox="0 0 395.52 74.2575606089081" height="74.2575606089081" width="395.52"><g transform="matrix(1,0,0,1,0,0)"><svg width="395.52" viewBox="-2.950000047683716 -44.20000076293945 267.02001953125 50.95000076293945" height="74.2575606089081" data-palette-color="#ffffff"><path d="M24.6-18.75L24.6-18.75 19.25-18.8Q12.65-18.8 8.95-15.6L8.95-15.6Q4.6-11.9 4.6-7L4.6-7Q4.6-4.7 5.68-2.78 6.75-0.85 9.53 0.4 12.3 1.65 17.03 1.65 21.75 1.65 27-0.35 32.25-2.35 35.85-5.15L35.85-5.15Q39.95-8.35 39.95-10.75L39.95-10.75Q39.95-11.9 38.75-12.18 37.55-12.45 37.5-12.8L37.5-12.8Q37.4-13.25 38.25-13.2 39.1-13.15 39.65-12.85L39.65-12.85Q41.9-11.65 41.9-9.75L41.9-9.75Q41.9-6.95 38.02-3.9 34.15-0.85 28.25 0.95 22.35 2.75 17.2 2.75 12.05 2.75 8.85 1.75L8.85 1.75Q3.2 0 1.5-4.7L1.5-4.7Q1.05-5.9 1.05-7 1.05-8.1 1.45-9.73 1.85-11.35 3.25-13.45 4.65-15.55 7.3-17.35 9.95-19.15 12.98-20.03 16-20.9 18.4-21L18.4-21Q15.9-21.9 14.15-23.5 12.4-25.1 12.4-26.95L12.4-26.95Q12.4-27.1 12.4-27.25L12.4-27.25Q12.75-31.3 16.95-34.52 21.15-37.75 25.75-38.98 30.35-40.2 33.7-40.2L33.7-40.2Q34.75-40.2 35.75-40.1L35.75-40.1Q39.9-39.6 41.7-38.02 43.5-36.45 43.5-34.85L43.5-34.85Q43.5-32.6 40.93-30.53 38.35-28.45 34.7-27.65L34.7-27.65Q33.8-27.45 33.23-27.45 32.65-27.45 32.7-27.75L32.7-27.75Q32.9-28.35 34.4-28.53 35.9-28.7 37.3-29.7L37.3-29.7Q40.1-31.75 40.5-35L40.5-35Q40.5-35.15 40.5-35.3L40.5-35.3Q40.5-36.55 39.3-37.6L39.3-37.6Q37.8-39 34.25-39 30.7-39 26.9-37.88 23.1-36.75 19.9-34.15L19.9-34.15Q16.1-31.05 16.1-27.4L16.1-27.4Q16.1-25.95 16.98-24.75 17.85-23.55 19.53-22.98 21.2-22.4 22.9-22L22.9-22Q26.75-21.2 26.75-19.9L26.75-19.9Q26.75-18.75 24.6-18.75ZM67.25-16.4L67.25-16.4Q61.15-5.55 61.15-2.4L61.15-2.4Q61.15-1 62.1-1L62.1-1Q63.3-1 64.85-2.8L64.85-2.8Q67.2-5.65 68.95-9.65L68.95-9.65Q69.25-10.35 69.55-10.2 69.85-10.05 69.85-9.8 69.85-9.55 69.35-8.55 68.85-7.55 68.55-6.95 68.25-6.35 67.22-4.65 66.2-2.95 65.47-2.15 64.75-1.35 63.62-0.58 62.5 0.2 61.07 0.2 59.65 0.2 58.65-1.2L58.65-1.2Q58.2-1.85 58.2-2.98 58.2-4.1 58.7-5.7 59.2-7.3 61.45-10.9L61.45-10.9Q62-11.8 62-12.33 62-12.85 61.17-12.85 60.35-12.85 58.2-10.85 56.05-8.85 53.67-5.45 51.3-2.05 50.85 0L50.85 0Q50 0 49.6-0.7 49.2-1.4 49.2-1.9L49.2-1.9Q49.2-3.95 51.95-9.7L51.95-9.7Q52.85-11.6 52.9-12.28 52.95-12.95 52.72-12.98 52.5-13 52.1-12.8L52.1-12.8Q51.2-12.35 49.35-10.6L49.35-10.6Q45.85-7.4 42.45-0.85L42.45-0.85Q42.2-0.3 41.82-0.18 41.45-0.05 40.35 0 39.25 0.05 38.9 0.25L38.9 0.25Q39.8-1.5 42.05-6.3L42.05-6.3Q46.1-14.9 47.45-16.2L47.45-16.2Q48.05-16.8 49.1-16.8L49.1-16.8Q49.3-16.8 50.12-16.65 50.95-16.5 51.35-16.6L51.35-16.6Q49.5-15.6 45.3-7.2L45.3-7.2Q47.65-10.1 48.67-11 49.7-11.9 50.2-12.35 50.7-12.8 50.97-13.05 51.25-13.3 51.77-13.78 52.3-14.25 52.57-14.48 52.85-14.7 53.35-15.1 53.85-15.5 54.12-15.63 54.4-15.75 54.87-16.05 55.35-16.35 55.57-16.35 55.8-16.35 56.2-16.48 56.6-16.6 56.75-16.4L56.75-16.4Q57.75-16 57.75-15.15L57.75-15.15Q57.75-14.4 56.05-11.3 54.35-8.2 53.85-7.2L53.85-7.2Q56.05-9.95 58.05-11.73 60.05-13.5 62.77-15 65.5-16.5 66.75-16.5L66.75-16.5Q67.05-16.5 67.25-16.4ZM71.14-7.7L71.14-7.7Q70.44-6 70.44-3.9L70.44-3.9Q70.44-2.5 71.07-1.68 71.69-0.85 72.84-0.85L72.84-0.85Q77.39-0.85 81.09-9.4L81.09-9.4Q81.44-10.2 81.94-10.1L81.94-10.1Q82.14-10.05 82.14-9.85 82.14-9.65 81.02-7.23 79.89-4.8 78.75-3.3L78.75-3.3Q76.19 0.2 72.44 0.2L72.44 0.2Q70.44 0.2 69.05-1.1 67.64-2.4 67.64-4.65 67.64-6.9 68.72-9.43 69.8-11.95 71.64-14.13 73.5-16.3 75.89-17.3L75.89-17.3Q77.05-17.8 78.09-17.8 79.14-17.8 80.05-17.2L80.05-17.2Q80.89-16.5 80.89-15.65L80.89-15.65Q80.89-12.65 77.3-9.9L77.3-9.9Q76.19-9.05 74.19-8.38 72.19-7.7 71.14-7.7ZM79.55-15.7L79.55-15.7Q79.55-16.7 78.75-16.7L78.75-16.7Q77.34-16.7 74.5-13.25L74.5-13.25Q72.8-11.15 71.5-8.55L71.5-8.55Q72.34-8.55 73.97-9.15 75.59-9.75 76.8-10.75L76.8-10.75Q79.55-13.1 79.55-15.7ZM87.94-20.05L87.94-20.05Q87.94-17.8 85.09-15.8L85.09-15.8Q86.09-15.75 87.77-15.75 89.44-15.75 91.99-16L91.99-16Q92.09-15.85 92.09-15.2 92.09-14.55 91.49-13.28 90.89-12 90.42-11.08 89.94-10.15 89.52-9.33 89.09-8.5 88.57-7.3 88.04-6.1 87.69-5.1L87.69-5.1Q86.44-1.3 88.09-1.3L88.09-1.3Q90.19-1.3 94.29-9.65L94.29-9.65Q94.64-10.3 94.87-10.15 95.09-10 95.09-9.78 95.09-9.55 94.44-8.22 93.79-6.9 93.04-5.5 92.29-4.1 90.69-2.25L90.69-2.25Q88.79 0.05 87.04 0.05L87.04 0.05Q85.09 0.05 84.34-2.3L84.34-2.3Q84.19-2.75 84.19-3.65 84.19-4.55 84.77-6.05 85.34-7.55 86.59-9.7 87.84-11.85 87.99-12.23 88.14-12.6 88.14-12.95L88.14-12.95Q88.14-14.5 84.14-14.6L84.14-14.6 83.54-13Q80.39-4.75 77.49-1.95L77.49-1.95Q76.99-1.5 76.99-2.25L76.99-2.25Q76.99-2.4 77.09-2.6L77.09-2.6Q79.89-6.3 81.94-11.35 83.99-16.4 84.79-20.95L84.79-20.95Q85.09-22.5 86.19-22.5 87.29-22.5 87.79-21.1L87.79-21.1Q87.94-20.65 87.94-20.05ZM109.44-13.55Q108.54-12.65 106.89-9.47 105.24-6.3 104.92-4.73 104.59-3.15 104.59-2.18 104.59-1.2 105.34-1.2L105.34-1.2Q106.29-1.2 107.69-2.95L107.69-2.95Q109.74-5.5 111.74-9.6L111.74-9.6Q111.94-10.05 112.19-10.1L112.19-10.1Q112.59-10.25 112.59-9.8L112.59-9.8Q112.59-9.55 112.44-9.2L112.44-9.2Q107.84 0.1 104.69 0.1L104.69 0.1Q103.24 0.1 102.34-1.3L102.34-1.3Q101.89-2.05 101.89-3.3 101.89-4.55 102.39-6.35L102.39-6.35Q98.39 0.1 95.49 0.1L95.49 0.1Q94.69 0.1 94.04-0.4L94.04-0.4Q92.54-1.45 92.54-4L92.54-4Q92.54-8.9 96.79-13.95L96.79-13.95Q99.19-16.75 102.69-17.6L102.69-17.6Q103.64-17.85 104.49-17.85L104.49-17.85Q106.79-17.85 108.39-16.25L108.39-16.25Q108.89-15.7 108.69-15.2 108.49-14.7 107.84-14.8L107.84-14.8Q107.29-16.6 105.44-16.6L105.44-16.6Q103.29-16.6 100.14-13.2L100.14-13.2Q98.34-11.2 96.79-8.5L96.79-8.5Q94.84-5.25 94.84-3.3 94.84-1.35 96.09-1.35L96.09-1.35Q99.09-1.35 103.94-10.55L103.94-10.55Q104.89-12.4 105.54-13.08 106.19-13.75 107.19-13.75L107.19-13.75Q107.39-13.75 108.22-13.6 109.04-13.45 109.44-13.55L109.44-13.55ZM114.49-9.65Q114.44-9.45 114.04-8.28 113.64-7.1 113.36-6.03 113.09-4.95 113.09-3.88 113.09-2.8 113.59-1.88 114.09-0.95 115.19-0.95L115.19-0.95Q116.99-0.95 118.69-3.38 120.39-5.8 122.29-9.55L122.29-9.55Q122.69-10.25 123.04-10.1L123.04-10.1Q123.29-9.9 123.14-9.58 122.99-9.25 122.51-8.18 122.04-7.1 121.81-6.68 121.59-6.25 121.01-5.18 120.44-4.1 120.01-3.58 119.59-3.05 118.86-2.23 118.14-1.4 117.49-1L117.49-1Q115.74 0.1 114.19 0.1 112.64 0.1 111.79-0.58 110.94-1.25 110.76-2.02 110.59-2.8 110.59-3.4 110.59-4 110.64-4.95L110.64-4.95Q110.79-6.55 111.26-8.05 111.74-9.55 111.79-9.75L111.79-9.75Q112.94-13.9 115.06-18.8 117.19-23.7 118.66-26.18 120.14-28.65 120.99-29.55L120.99-29.55Q122.69-31.35 124.34-31.35L124.34-31.35Q125.49-31.35 125.89-29.7L125.89-29.7Q125.94-29.4 125.94-28.95L125.94-28.95Q125.94-27.25 124.74-24.65L124.74-24.65Q120.44-15.1 114.49-9.65L114.49-9.65ZM114.89-11.25Q117.44-13.85 119.94-17.8 122.44-21.75 123.61-24.53 124.79-27.3 124.79-28.3 124.79-29.3 124.44-29.3L124.44-29.3Q123.94-29.3 122.54-27.33 121.14-25.35 118.76-20.23 116.39-15.1 114.89-11.25L114.89-11.25ZM132.89-2.9L132.89-2.9Q132.89-1.3 134.19-1.3L134.19-1.3Q136.54-1.3 140.44-9.15L140.44-9.15Q140.59-9.45 140.71-9.75 140.84-10.05 141.11-10.15 141.39-10.25 141.49-10.03 141.59-9.8 141.39-9.3L141.39-9.3Q137.39 0 133.29 0L133.29 0Q131.94 0 131.14-1.2 130.34-2.4 130.34-3.58 130.34-4.75 130.59-5.75L130.59-5.75Q127.69-0.95 125.59-0.3L125.59-0.3Q124.99-0.05 124.41-0.05 123.84-0.05 123.29-0.2L123.29-0.2Q120.84-0.85 120.84-4.1L120.84-4.1Q120.84-6.3 121.96-8.97 123.09-11.65 125.14-14.1 127.19-16.55 130.09-17.4L130.09-17.4Q131.14-17.75 132.56-17.75 133.99-17.75 135.74-16.85L135.74-16.85Q139.14-23.25 141.54-28.7L141.54-28.7Q142.24-30.35 142.91-30.83 143.59-31.3 144.16-31.3 144.74-31.3 144.86-31.3 144.99-31.3 145.81-31.18 146.64-31.05 147.09-31.1L147.09-31.1Q145.94-30.05 140.99-20.9L140.99-20.9Q134.69-9.2 133.39-5.3L133.39-5.3Q132.89-3.85 132.89-2.9ZM135.34-16.05L135.34-16.05Q134.69-16.7 133.51-16.7 132.34-16.7 130.24-14.95L130.24-14.95Q126.89-12.15 124.69-8.05L124.69-8.05Q123.24-5.35 123.24-3.6L123.24-3.6Q123.24-2.8 123.56-2.15 123.89-1.5 124.59-1.5L124.59-1.5Q126.29-1.5 128.79-5 131.29-8.5 135.34-16.05ZM202.68-9.6L202.68-9.6Q202.68-6.75 200.63-4.3L200.63-4.3Q197.73-0.8 192.88 0.75L192.88 0.75Q189.28 1.9 185.88 1.9L185.88 1.9Q184.63 1.9 183.43 1.75L183.43 1.75Q175.58 0.75 170.13-1.7L170.13-1.7Q165.18 1.95 159.68 1.95L159.68 1.95Q153.18 1.95 151.63-1.65L151.63-1.65Q151.28-2.5 151.28-3.65 151.28-4.8 152.43-6.1L152.43-6.1Q154.23-8.1 157.43-8.1L157.43-8.1Q159.53-8.1 161.23-7.5 162.93-6.9 165.43-5.55 167.93-4.2 169.13-3.6L169.13-3.6Q171.33-5.75 173.68-9.58 176.03-13.4 177.81-17.07 179.58-20.75 182.33-25.25 185.08-29.75 187.93-32.9L187.93-32.9 190.78-36.15Q186.83-36.85 182.08-36.85 177.33-36.85 171.63-35.6L171.63-35.6Q163.83-33.95 159.63-28.9L159.63-28.9Q157.08-25.85 157.08-23.1L157.08-23.1Q157.08-19.45 160.63-18.35L160.63-18.35Q161.88-18 162.83-18 163.78-18 165.03-18.35 166.28-18.7 167.46-19.83 168.63-20.95 169.16-22 169.68-23.05 169.68-23.58 169.68-24.1 170.18-24.1L170.18-24.1Q170.68-24.05 170.73-23.4L170.73-23.4 170.73-23.35Q170.18-19.7 166.83-17.8L166.83-17.8Q164.78-16.7 162.73-16.7L162.73-16.7 160.13-17.15Q154.83-19 154.83-24.05L154.83-24.05Q154.83-27.5 157.88-30.85L157.88-30.85Q162.78-36.35 172.28-37.7L172.28-37.7Q176.88-38.35 181.86-38.35 186.83-38.35 191.98-37.25L191.98-37.25Q193.38-38.45 194.43-38.85 195.48-39.25 195.66-39.25 195.83-39.25 195.88-39.2L195.88-39.2Q196.18-39.2 196-38.88 195.83-38.55 194.91-37.95 193.98-37.35 193.78-36.85L193.78-36.85Q200.58-35.1 203.58-31.85L203.58-31.85Q205.18-30.05 205.18-28.18 205.18-26.3 204.08-24.4L204.08-24.4Q202.63-21.9 199.38-20.63 196.13-19.35 192.83-19.2L192.83-19.2Q196.03-18.2 198.78-16.4L198.78-16.4Q202.68-13.85 202.68-9.6ZM185.18 0.5L185.18 0.5Q190.78 0.5 194.68-2.7L194.68-2.7Q198.93-6.1 198.93-10.05L198.93-10.05Q198.93-14.15 194.58-16.25L194.58-16.25Q192.98-17 190.66-17.73 188.33-18.45 186.91-18.95 185.48-19.45 185.28-19.9L185.28-19.9Q185.28-20.85 186.73-20.9L186.73-20.9Q187.68-20.9 189.63-20.75 191.58-20.6 192.98-20.63 194.38-20.65 196.36-21.63 198.33-22.6 199.73-24.15L199.73-24.15Q201.98-26.65 201.98-28.85L201.98-28.85Q201.98-33.55 193.18-35.6L193.18-35.6Q190.53-31.95 183.68-20.18 176.83-8.4 173.13-4.4L173.13-4.4 171.23-2.6Q176.88-0.25 183.38 0.4L183.38 0.4Q184.33 0.5 185.18 0.5ZM168.03-2.65L168.03-2.65Q162.18-5.45 160.63-6 159.08-6.55 157.56-6.55 156.03-6.55 155.13-5.48 154.23-4.4 154.23-3.53 154.23-2.65 154.63-1.85L154.63-1.85Q155.73 0.4 159.23 0.4L159.23 0.4Q163.98 0.4 168.03-2.65ZM208.43-9.65Q208.38-9.45 207.98-8.28 207.58-7.1 207.3-6.03 207.03-4.95 207.03-3.88 207.03-2.8 207.53-1.88 208.03-0.95 209.13-0.95L209.13-0.95Q210.93-0.95 212.63-3.38 214.33-5.8 216.23-9.55L216.23-9.55Q216.63-10.25 216.98-10.1L216.98-10.1Q217.23-9.9 217.08-9.58 216.93-9.25 216.45-8.18 215.98-7.1 215.75-6.68 215.53-6.25 214.95-5.18 214.38-4.1 213.95-3.58 213.53-3.05 212.8-2.23 212.08-1.4 211.43-1L211.43-1Q209.68 0.1 208.13 0.1 206.58 0.1 205.73-0.58 204.88-1.25 204.7-2.02 204.53-2.8 204.53-3.4 204.53-4 204.58-4.95L204.58-4.95Q204.73-6.55 205.2-8.05 205.68-9.55 205.73-9.75L205.73-9.75Q206.88-13.9 209-18.8 211.13-23.7 212.6-26.18 214.08-28.65 214.93-29.55L214.93-29.55Q216.63-31.35 218.28-31.35L218.28-31.35Q219.43-31.35 219.83-29.7L219.83-29.7Q219.88-29.4 219.88-28.95L219.88-28.95Q219.88-27.25 218.68-24.65L218.68-24.65Q214.38-15.1 208.43-9.65L208.43-9.65ZM208.83-11.25Q211.38-13.85 213.88-17.8 216.38-21.75 217.55-24.53 218.73-27.3 218.73-28.3 218.73-29.3 218.38-29.3L218.38-29.3Q217.88-29.3 216.48-27.33 215.08-25.35 212.7-20.23 210.33-15.1 208.83-11.25L208.83-11.25ZM214.53-2.9L214.53-2.9Q214.53-5.05 216.38-8.1L216.38-8.1Q215.58-8.1 215.93-8.9L215.93-8.9 216.83-10.65Q218.53-13.9 219.63-16.15L219.63-16.15Q220.13-17.2 221.58-17.2L221.58-17.2 224.63-17.2Q222.83-15.9 221-12.18 219.18-8.45 218.18-6.33 217.18-4.2 217.18-3.1 217.18-2 217.55-1.55 217.93-1.1 218.58-1.1L218.58-1.1Q219.53-1.1 221.23-3.1L221.23-3.1Q223.88-6.2 228.68-16.15L228.68-16.15Q229.23-17.2 230.63-17.2L230.63-17.2 233.33-17.2Q232.23-16.35 231.6-15.45 230.98-14.55 229.88-12.25L229.88-12.25Q226.88-6.25 226.53-4.3L226.53-4.3Q226.38-3.6 226.38-3L226.38-3Q226.38-1.4 227.48-1.3L227.48-1.3Q230.18-1.3 234.13-9.65L234.13-9.65Q234.43-10.35 234.73-10.2 235.03-10.05 235.03-9.8 235.03-9.55 234.58-8.65 234.13-7.75 233.7-6.9 233.28-6.05 232.4-4.58 231.53-3.1 230.78-2.25L230.78-2.25Q228.83-0.05 226.95-0.05 225.08-0.05 224.38-1.7L224.38-1.7Q224.08-2.45 224.08-3.6 224.08-4.75 224.58-6.45L224.58-6.45Q220.93-0.05 217.83-0.05L217.83-0.05Q215.13-0.05 214.68-2.3L214.68-2.3Q214.53-2.55 214.53-2.9ZM236.32-7.7L236.32-7.7Q235.62-6 235.62-3.9L235.62-3.9Q235.62-2.5 236.25-1.68 236.87-0.85 238.02-0.85L238.02-0.85Q242.57-0.85 246.27-9.4L246.27-9.4Q246.62-10.2 247.12-10.1L247.12-10.1Q247.32-10.05 247.32-9.85 247.32-9.65 246.2-7.23 245.07-4.8 243.92-3.3L243.92-3.3Q241.37 0.2 237.62 0.2L237.62 0.2Q235.62 0.2 234.22-1.1 232.82-2.4 232.82-4.65 232.82-6.9 233.9-9.43 234.97-11.95 236.82-14.13 238.67-16.3 241.07-17.3L241.07-17.3Q242.22-17.8 243.27-17.8 244.32-17.8 245.22-17.2L245.22-17.2Q246.07-16.5 246.07-15.65L246.07-15.65Q246.07-12.65 242.47-9.9L242.47-9.9Q241.37-9.05 239.37-8.38 237.37-7.7 236.32-7.7ZM244.72-15.7L244.72-15.7Q244.72-16.7 243.92-16.7L243.92-16.7Q242.52-16.7 239.67-13.25L239.67-13.25Q237.97-11.15 236.67-8.55L236.67-8.55Q237.52-8.55 239.15-9.15 240.77-9.75 241.97-10.75L241.97-10.75Q244.72-13.1 244.72-15.7ZM250.67-0.95L250.67-0.95Q251.32-0.85 251.57-0.85L251.57-0.85Q253.57-0.85 255.52-3.2L255.52-3.2Q256.57-4.5 259.27-9.75L259.27-9.75Q259.37-10 259.62-10L259.62-10Q260.07-10.05 260.07-9.65L260.07-9.65Q260.07-9.55 259.85-9.08 259.62-8.6 259.42-8.13 259.22-7.65 258.77-6.75 258.32-5.85 258-5.3 257.67-4.75 257.17-3.95 256.67-3.15 256.17-2.7L256.17-2.7 255.12-1.6Q254.27-0.75 253.12-0.4L253.12-0.4Q251.27 0.2 249.52-0.3L249.52-0.3Q248.37 0.2 247.47 0.2L247.47 0.2Q243.92 0.2 243.17-2.6L243.17-2.6Q243.02-3.25 243.02-4.17 243.02-5.1 243.65-5.95 244.27-6.8 244.97-6.85L244.97-6.85Q247.52-11.7 249.32-15.6L249.32-15.6Q251.32-19.85 253.97-19.85L253.97-19.85Q254.67-19.85 255.35-19.53 256.02-19.2 255.85-18.8 255.67-18.4 255.12-18.65 254.57-18.9 254.17-18.9 253.77-18.9 253.47-18.75L253.47-18.75Q251.77-17.95 251.77-15.3L251.77-15.3Q251.77-13.9 252.17-13 252.57-12.1 253.07-11.05L253.07-11.05Q254.22-8.45 254.22-6.8L254.22-6.8Q254.22-5.15 253.17-3.55 252.12-1.95 250.67-0.95ZM248.97-1.3L248.97-1.3Q251.17-3 251.17-6.8L251.17-6.8Q251.17-8.35 250.82-11.05 250.47-13.75 250.47-14.7 250.47-15.65 250.52-16L250.52-16Q246.72-8.4 245.82-6.75L245.82-6.75Q246.87-6.75 246.87-5.25L246.87-5.25Q246.87-2.3 248.97-1.3ZM245.22-2.65L245.22-2.65Q245.22-2.35 245.27-2L245.27-2Q245.67-0.65 247.12-0.65L247.12-0.65Q247.72-0.65 248.12-0.85L248.12-0.85Q246.27-2 246.12-4.6L246.12-4.6Q245.22-3.7 245.22-2.65Z" opacity="1" transform="matrix(1,0,0,1,0,0)" fill="#ffffff" class="wordmark-text-0" data-fill-palette-color="primary" id="text-0"></path></svg></g></svg></g></svg></g></svg></g></svg></g></svg></g></svg></g></svg></g><defs></defs></svg><rect width="395.52" height="247.2" fill="none" stroke="none" visibility="hidden"></rect></g></svg></g></svg>